<svg width="120" height="120" viewBox="0 0 120 120" fill="none" xmlns="http://www.w3.org/2000/svg">
<rect width="120" height="120" rx="60" fill="#135DC1"/>
<path d="M65.95 64.6299H54.05C51.8393 64.481 49.6223 64.8065 47.5477 65.5847C45.4732 66.3629 43.589 67.5758 42.0217 69.1419C40.4543 70.708 39.2399 72.5911 38.4601 74.6651C37.6802 76.739 37.3529 78.9557 37.5 81.1665C37.3423 82.5934 37.5093 84.0375 37.9885 85.3907C38.4676 86.744 39.2465 87.9714 40.2669 88.9812C41.2873 89.991 42.5227 90.757 43.8809 91.222C45.2391 91.6871 46.6848 91.839 48.11 91.6665H71.89C73.3151 91.839 74.7609 91.6871 76.119 91.222C77.4772 90.757 78.7127 89.991 79.733 88.9812C80.7534 87.9714 81.5323 86.744 82.0115 85.3907C82.4906 84.0375 82.6576 82.5934 82.5 81.1665C82.6471 78.9557 82.3197 76.739 81.5399 74.6651C80.76 72.5911 79.5456 70.708 77.9783 69.1419C76.4109 67.5758 74.5267 66.3629 72.4522 65.5847C70.3776 64.8065 68.1607 64.481 65.95 64.6299Z" fill="white" fill-opacity="0.25"/>
<path d="M60.0268 58.3732C62.3362 58.364 64.5911 57.6708 66.5068 56.381C68.4225 55.0913 69.9131 53.2629 70.7905 51.1266C71.6679 48.9904 71.8927 46.6421 71.4365 44.3782C70.9803 42.1142 69.8636 40.0362 68.2274 38.4065C66.5911 36.7768 64.5087 35.6683 62.243 35.2212C59.9773 34.774 57.6299 35.0082 55.4971 35.894C53.3644 36.7799 51.5419 38.2779 50.2598 40.1987C48.9777 42.1195 48.2935 44.3772 48.2935 46.6866C48.304 49.7909 49.5451 52.7644 51.7446 54.9551C53.9441 57.1458 56.9225 58.375 60.0268 58.3732Z" fill="white"/>
<path d="M95.0003 62.1663C95.1257 63.259 95.0022 64.3658 94.639 65.4039C94.2758 66.442 93.6823 67.3844 92.903 68.1604C92.1237 68.9365 91.1789 69.5261 90.1393 69.885C89.0997 70.244 87.9924 70.3629 86.9003 70.233H85.5003C85.3029 70.2363 85.1089 70.1811 84.9428 70.0743C84.7767 69.9676 84.6459 69.814 84.567 69.633C83.2776 67.2892 81.5005 65.2493 79.3557 63.6507C77.2109 62.0521 74.7481 60.9322 72.1336 60.3663C71.9584 60.3316 71.7957 60.2506 71.6624 60.1317C71.5291 60.0128 71.4301 59.8603 71.3757 59.6902C71.3213 59.5201 71.3134 59.3385 71.3529 59.1643C71.3924 58.9901 71.4778 58.8297 71.6003 58.6997C73.9374 56.5 75.5725 53.6589 76.3003 50.533C76.3525 50.3155 76.4761 50.1218 76.6513 49.9828C76.8265 49.8438 77.0433 49.7676 77.267 49.7663H82.6336C84.2882 49.6596 85.9465 49.9075 87.4975 50.4933C89.0485 51.0792 90.4565 51.9896 91.6273 53.1635C92.7981 54.3375 93.7047 55.7479 94.2864 57.3005C94.8681 58.8532 95.1115 60.5121 95.0003 62.1663Z" fill="white" fill-opacity="0.25"/>
<path d="M87.2669 37.2332C87.2687 39.5973 86.3327 41.8655 84.6642 43.5402C82.9957 45.215 80.731 46.1595 78.3669 46.1666C78.1203 46.1666 77.8769 46.1666 77.6403 46.1332C77.3821 46.1262 77.1359 46.0227 76.9503 45.8432C76.795 45.6927 76.7022 45.4892 76.6903 45.2732C76.5182 43.1093 75.917 41.0012 74.9218 39.072C73.9266 37.1428 72.5572 35.4311 70.8936 34.0366C70.7168 33.9168 70.5918 33.7346 70.5436 33.5266C70.4809 33.3036 70.506 33.065 70.6136 32.8599C71.5785 31.1414 73.0863 29.7916 74.9008 29.0221C76.7153 28.2526 78.7338 28.1069 80.6399 28.6078C82.5461 29.1088 84.2321 30.228 85.4338 31.7902C86.6355 33.3523 87.2849 35.269 87.2803 37.2399L87.2669 37.2332Z" fill="white"/>
<path d="M25.0002 62.1663C24.8748 63.259 24.9983 64.3658 25.3615 65.4039C25.7247 66.442 26.3182 67.3844 27.0975 68.1604C27.8768 68.9365 28.8216 69.5261 29.8612 69.885C30.9008 70.244 32.0081 70.3629 33.1002 70.233H34.5002C34.6976 70.2363 34.8916 70.1811 35.0577 70.0743C35.2238 69.9676 35.3546 69.814 35.4335 69.633C36.7229 67.2892 38.4999 65.2493 40.6448 63.6507C42.7896 62.0521 45.2524 60.9322 47.8668 60.3663C48.0421 60.3316 48.2048 60.2506 48.338 60.1317C48.4713 60.0128 48.5703 59.8603 48.6248 59.6902C48.6792 59.5201 48.6871 59.3385 48.6476 59.1643C48.6081 58.9901 48.5227 58.8297 48.4002 58.6997C46.0631 56.5 44.428 53.6589 43.7002 50.533C43.648 50.3155 43.5244 50.1218 43.3492 49.9828C43.1739 49.8438 42.9572 49.7676 42.7335 49.7663H37.3668C35.7123 49.6596 34.054 49.9075 32.503 50.4933C30.952 51.0792 29.5439 51.9896 28.3732 53.1635C27.2024 54.3375 26.2958 55.7479 25.7141 57.3005C25.1324 58.8532 24.889 60.5121 25.0002 62.1663Z" fill="white" fill-opacity="0.25"/>
<path d="M32.7336 37.2332C32.7318 39.5973 33.6678 41.8655 35.3363 43.5402C37.0048 45.215 39.2695 46.1595 41.6336 46.1666C41.8802 46.1666 42.1236 46.1666 42.3602 46.1332C42.6184 46.1262 42.8646 46.0227 43.0502 45.8432C43.2055 45.6927 43.2983 45.4892 43.3102 45.2732C43.4823 43.1093 44.0835 41.0012 45.0787 39.072C46.0739 37.1428 47.4433 35.4311 49.1069 34.0366C49.2837 33.9168 49.4087 33.7346 49.4569 33.5266C49.5196 33.3036 49.4945 33.065 49.3869 32.8599C48.422 31.1414 46.9142 29.7916 45.0997 29.0221C43.2853 28.2526 41.2667 28.1069 39.3606 28.6078C37.4544 29.1088 35.7684 30.228 34.5667 31.7902C33.365 33.3523 32.7156 35.269 32.7202 37.2399L32.7336 37.2332Z" fill="white"/>
</svg>
