<svg width="120" height="120" viewBox="0 0 120 120" fill="none" xmlns="http://www.w3.org/2000/svg">
<rect width="120" height="120" rx="60" fill="#135DC1"/>
<path d="M53.3636 55.0002C60.7274 55.0002 66.6969 49.0306 66.6969 41.6668C66.6969 34.303 60.7274 28.3335 53.3636 28.3335C45.9998 28.3335 40.0303 34.303 40.0303 41.6668C40.0303 49.0306 45.9998 55.0002 53.3636 55.0002Z" fill="white"/>
<path d="M73.5235 67.267C73.5193 67.5287 73.4156 67.779 73.2335 67.967L59.8002 81.467C58.8622 82.4037 58.3347 83.6747 58.3335 85.0003V90.667C58.3259 90.9348 58.2189 91.1902 58.0335 91.3836C57.9456 91.4814 57.8374 91.5589 57.7165 91.6107C57.5957 91.6625 57.465 91.6874 57.3335 91.6836H40.0002C32.3668 91.6836 28.3335 87.6836 28.3335 80.0836C28.3335 71.5836 33.1335 61.6836 46.6668 61.6836H60.0002C62.3941 61.5633 64.7878 61.9263 67.0385 62.751C69.2891 63.5757 71.3507 64.8451 73.1002 66.4836C73.3269 66.6885 73.4763 66.9651 73.5235 67.267Z" fill="white" fill-opacity="0.25"/>
<path d="M86.7935 78.27L71.6668 93.3334H63.3335V85L78.3968 69.87L86.7935 78.27ZM92.3602 68.04L88.6268 64.3067C88.0023 63.6859 87.1574 63.3374 86.2768 63.3374C85.3962 63.3374 84.5514 63.6859 83.9268 64.3067L80.7302 67.54L89.1268 75.9367L92.3602 72.74C92.981 72.1155 93.3295 71.2707 93.3295 70.39C93.3295 69.5094 92.981 68.6646 92.3602 68.04Z" fill="white"/>
</svg>
