<svg width="56" height="57" viewBox="0 0 56 57" fill="none" xmlns="http://www.w3.org/2000/svg">
<path fill-rule="evenodd" clip-rule="evenodd" d="M7.69467 9.76511H2.94287L9.66648 3.0415V7.7933C9.66648 8.88082 8.78218 9.76511 7.69467 9.76511ZM15.4755 28.0208C15.689 27.6509 16.0359 27.3872 16.4482 27.2764C16.6512 27.221 16.8631 27.2065 17.0718 27.2337C17.2804 27.2609 17.4816 27.3292 17.6637 27.4346L19.7435 28.6354C20.5013 29.0728 20.7626 30.0476 20.3251 30.8055L14.3319 41.1864C13.8947 41.9436 12.9194 42.2054 12.1622 41.7679L10.0818 40.5657C9.31845 40.1246 9.05486 39.1424 9.49575 38.3787L15.4755 28.0208ZM42.6547 31.1126L42.4771 30.8056C42.0391 30.0484 42.3011 29.0724 43.0586 28.6353L45.139 27.4345C45.321 27.3294 45.5221 27.2613 45.7306 27.2341C45.9391 27.207 46.1509 27.2213 46.3538 27.2764C46.7657 27.3871 47.1127 27.6513 47.326 28.0208L53.307 38.3786C53.7479 39.1421 53.4841 40.1246 52.721 40.5656L50.6405 41.7678C49.8834 42.2053 48.908 41.9435 48.4709 41.1864L42.6549 31.113V31.1126H42.6547Z" fill="#135DC1"/>
<path fill-rule="evenodd" clip-rule="evenodd" d="M53.0227 38.5427L47.0418 28.1848C46.8735 27.8911 46.5978 27.6812 46.2686 27.5932C46.1074 27.549 45.939 27.5373 45.7732 27.5589C45.6074 27.5804 45.4476 27.6348 45.303 27.7188L43.2226 28.9195C42.6213 29.2673 42.4144 30.0395 42.7612 30.6414L42.9829 31.0247V31.0252L48.7549 41.0224C49.1027 41.6237 49.8748 41.8306 50.4762 41.4839L52.5567 40.2816C53.1648 39.9316 53.3736 39.1507 53.0227 38.5427ZM45.64 44.6542C45.7275 44.9813 45.6838 45.3229 45.5165 45.6136C45.3478 45.9044 45.0747 46.1122 44.7474 46.2011C44.4192 46.2886 44.0781 46.2448 43.787 46.0761L39.0886 43.3624C38.9376 43.2757 38.7584 43.2524 38.5903 43.2976C38.4221 43.3427 38.2787 43.4525 38.1914 43.6031C38.0097 43.9175 38.1183 44.3186 38.4321 44.5003L41.9319 46.52C41.9385 46.5246 41.9442 46.5288 41.9504 46.5334C42.5096 46.893 42.6932 47.6544 42.3619 48.2296C42.0131 48.8335 41.2374 49.0413 40.6328 48.6925L39.41 47.9867C39.4064 47.9847 39.4033 47.9826 39.3997 47.9816C39.3988 47.9806 39.3967 47.9795 39.3956 47.9785L37.1665 46.6909C37.0155 46.6041 36.8364 46.5808 36.6682 46.6259C36.5 46.671 36.3566 46.7809 36.2693 46.9316C36.0882 47.2454 36.1963 47.6467 36.51 47.8283L38.7505 49.1211C39.3493 49.4714 39.5541 50.2436 39.2063 50.846C39.039 51.1372 38.7654 51.345 38.4371 51.4335C38.1104 51.521 37.7694 51.4772 37.4782 51.309L35.245 50.0193C35.0942 49.9322 34.9149 49.9086 34.7467 49.9536C34.5784 49.9987 34.435 50.1087 34.3478 50.2596C34.1672 50.5739 34.2748 50.9752 34.5886 51.1557L35.5979 51.7385C35.5996 51.7399 35.6015 51.7409 35.6036 51.7416C36.1952 52.094 36.3963 52.8662 36.0517 53.4624C35.8844 53.753 35.6113 53.9609 35.2831 54.0498C34.9559 54.1373 34.6148 54.093 34.3236 53.9248L31.7658 52.4484L33.1929 49.9775C33.9029 48.7469 33.4795 47.1676 32.2489 46.4566C31.8262 46.2128 31.3428 46.0945 30.8553 46.1156C31.1038 45.0404 30.637 43.8818 29.6329 43.3025C29.0382 42.9589 28.3437 42.8679 27.6775 43.0464C27.4619 43.1043 27.2546 43.1895 27.0606 43.3C26.8558 42.7686 26.4762 42.3015 25.9489 41.9975C25.1258 41.5216 24.1473 41.5535 23.3767 41.9944C23.172 41.4635 22.7923 40.9969 22.2645 40.6929C21.6703 40.3492 20.9758 40.2582 20.3091 40.4367C19.6423 40.6152 19.0867 41.0417 18.7436 41.6353L17.6592 43.5146C16.9816 42.8093 16.3458 42.0073 15.6111 40.9377L20.6372 32.2329C22.4111 33.1337 24.0902 33.4445 25.5887 33.7202C26.0471 33.8045 26.4901 33.8863 26.9206 33.9815L24.9559 35.9462C24.6303 36.2718 24.4512 36.704 24.4512 37.1654C24.4512 37.6269 24.6303 38.059 24.9553 38.3841C25.4672 38.8959 26.3279 39.2411 27.2019 39.2839C28.2504 39.3353 29.2262 38.9659 29.9501 38.2426L31.2871 36.9061L32.9559 36.9565C34.6963 38.699 36.4572 39.4691 37.9295 39.7705C37.9403 39.7772 37.9501 39.7849 37.9598 39.7905L45.0519 43.8855C45.3437 44.0529 45.5521 44.326 45.64 44.6542ZM30.1259 52.6636L30.3014 52.3611V52.3596L32.0561 49.3212C32.4049 48.7178 32.1971 47.942 31.5931 47.5932C30.9943 47.2475 30.2221 47.4512 29.8708 48.0459L27.9277 51.4104C27.5892 52.0123 27.8002 52.782 28.3979 53.1276C28.5417 53.2107 28.7005 53.2645 28.8652 53.2857C29.03 53.3069 29.1972 53.2951 29.3574 53.2511C29.6851 53.1636 29.9583 52.9548 30.1259 52.6636ZM29.4396 46.1672C29.7884 45.5632 29.5806 44.788 28.9766 44.4392C28.7863 44.3286 28.5701 44.2704 28.35 44.2704C28.2394 44.2704 28.1272 44.2848 28.0172 44.3142C27.689 44.4026 27.4163 44.6105 27.2481 44.9016L24.2504 50.0934C24.0828 50.3846 24.0385 50.7256 24.1265 51.0538C24.169 51.2144 24.2428 51.365 24.3436 51.4969C24.4444 51.6289 24.5703 51.7397 24.714 51.823C25.3179 52.1708 26.0932 51.964 26.4424 51.3589L29.4396 46.1672ZM25.7624 44.8513C26.1015 44.25 25.8905 43.4787 25.2928 43.1341C25.1011 43.0232 24.8836 42.9649 24.6621 42.9649C24.2248 42.9649 23.7984 43.1913 23.5643 43.5967L20.9226 48.1731C20.7549 48.4638 20.7106 48.8043 20.7987 49.1326C20.8866 49.4608 21.095 49.7329 21.3857 49.9011C21.9855 50.2469 22.7587 50.0437 23.1095 49.4464L23.1141 49.4376L25.7624 44.8513ZM22.078 43.5461C22.4175 42.9448 22.2066 42.1746 21.6088 41.8294C21.4185 41.7189 21.2023 41.6607 20.9822 41.6606C20.8711 41.6606 20.7594 41.675 20.6494 41.7044C20.3217 41.7934 20.0485 42.0012 19.8802 42.2918L17.9505 45.6342C17.8673 45.7779 17.8134 45.9367 17.7921 46.1015C17.7709 46.2662 17.7826 46.4335 17.8266 46.5936C17.914 46.9219 18.1229 47.195 18.4136 47.3622C19.0114 47.708 19.7836 47.5057 20.135 46.9121L22.078 43.5461ZM20.0408 30.6413C20.3886 30.0394 20.1812 29.2672 19.5793 28.9194L17.4995 27.7187C17.3548 27.6347 17.1949 27.5804 17.029 27.5588C16.8631 27.5373 16.6946 27.5489 16.5333 27.5931C16.3716 27.6356 16.2199 27.7098 16.0871 27.8114C15.9543 27.9129 15.8429 28.0398 15.7595 28.1847L9.77968 38.5425C9.42825 39.1507 9.63771 39.9315 10.2457 40.2814L12.3261 41.4836C12.928 41.8304 13.7002 41.6235 14.0475 41.0222L20.0408 30.6413ZM4.4506 47.0134H16.5842C16.576 46.9862 16.5657 46.9609 16.5585 46.9337C16.38 46.2675 16.4706 45.573 16.8142 44.9783L16.9783 44.6938C16.2499 43.9705 15.5862 43.1747 14.8469 42.1355C14.6052 42.3969 14.312 42.6054 13.9859 42.7481C13.6598 42.8908 13.3077 42.9646 12.9517 42.9648C12.5015 42.9646 12.0593 42.8458 11.6697 42.6202L9.58925 41.4189C8.35463 40.7059 7.92971 39.1209 8.64272 37.8862L14.6231 27.5284C14.9678 26.9316 15.5255 26.5041 16.1938 26.3251C16.862 26.1461 17.5585 26.2371 18.1553 26.5818L20.2357 27.7831C21.3963 28.4529 21.8366 29.897 21.2846 31.09C22.866 31.8832 24.3687 32.1615 25.8266 32.4296C26.5838 32.569 27.3025 32.7017 28.0187 32.9003C28.5877 32.4003 29.2153 32.0679 29.97 31.8657L33.5453 30.9073C34.2985 30.7056 35.0259 30.6763 35.7456 30.8198V4.54923C35.7456 3.64273 35.0084 2.90554 34.103 2.90554H10.6506V7.79329C10.6506 9.42364 9.32446 10.7493 7.69466 10.7493H2.80691V45.3697C2.80691 46.2762 3.5441 47.0134 4.4506 47.0134ZM3.73496 9.43698L9.33824 3.8337V7.79329C9.33824 8.69979 8.60105 9.43698 7.69455 9.43698H3.73496ZM37.1743 32.7392C38.3642 33.2444 39.5834 33.2747 40.798 32.8298C41.265 32.6581 41.7214 32.4588 42.1648 32.233L47.191 40.9379C46.6873 41.672 46.2357 42.2703 45.7876 42.7991C45.7613 42.7826 45.7362 42.7646 45.7089 42.7492L40.7157 39.8663C41.9298 39.7017 42.7041 39.3246 42.7457 39.304C42.823 39.2659 42.892 39.213 42.9488 39.1482C43.0056 39.0834 43.0491 39.008 43.0767 38.9264C43.1043 38.8448 43.1156 38.7585 43.1098 38.6726C43.104 38.5866 43.0814 38.5026 43.0431 38.4254C42.9659 38.2695 42.8299 38.1505 42.665 38.0948C42.5002 38.039 42.3199 38.051 42.1639 38.128C42.1212 38.1486 37.8611 40.1832 33.7146 35.8542C33.5956 35.7298 33.4325 35.657 33.2604 35.6515L31.0437 35.5852C30.9541 35.5822 30.8649 35.5978 30.7816 35.6309C30.6983 35.664 30.6227 35.7139 30.5596 35.7775L29.0225 37.3142C28.435 37.9016 27.7435 37.9969 27.2667 37.9737C26.6375 37.9423 26.119 37.6917 25.8838 37.4567C25.8067 37.379 25.7645 37.2761 25.7645 37.1655C25.7645 37.0549 25.8067 36.952 25.8838 36.8744L28.6896 34.0691C29.1634 33.5953 29.663 33.3067 30.3101 33.1338L33.8855 32.1754C34.7076 31.9547 35.456 32.0083 36.2411 32.3426L37.1743 32.7392ZM53.2131 41.4189L51.1327 42.6202C50.7431 42.8457 50.3009 42.9645 49.8507 42.9648C49.4947 42.9646 49.1426 42.8909 48.8165 42.7482C48.4903 42.6055 48.1972 42.3969 47.9555 42.1355C47.5136 42.757 47.102 43.2853 46.6884 43.7642C46.7823 43.9385 46.8559 44.123 46.9076 44.3142C47.0872 44.9813 46.996 45.6749 46.6529 46.2701C46.3093 46.8638 45.7537 47.2902 45.0865 47.4687C44.6801 47.5788 44.2529 47.5873 43.8425 47.4935C43.8621 47.9809 43.7427 48.4638 43.4983 48.886C42.9185 49.8902 41.7616 50.3564 40.6859 50.1088C40.7067 50.5965 40.588 51.0799 40.3438 51.5025C40.0006 52.0962 39.4435 52.5226 38.7778 52.7011C38.3701 52.8116 37.9414 52.8199 37.5298 52.7253C37.5507 53.2125 37.4328 53.6957 37.1897 54.1184C36.8461 54.7127 36.2894 55.138 35.6232 55.3176C35.4031 55.3765 35.1762 55.4066 34.9483 55.4071C34.5023 55.4071 34.0634 55.2903 33.6673 55.0613L31.0925 53.5752C30.7488 54.0356 30.2638 54.3668 29.6969 54.5186C29.4769 54.5784 29.2499 54.6087 29.0219 54.6086C28.5721 54.6089 28.1303 54.49 27.7415 54.264C27.2142 53.9599 26.8345 53.4928 26.6298 52.9614C25.8591 53.4023 24.8802 53.4337 24.0576 52.9594C23.4634 52.6157 23.0375 52.0601 22.859 51.3929C22.8462 51.346 22.8348 51.2986 22.8251 51.2509C22.1505 51.4726 21.3887 51.4181 20.7292 51.0374C20.1351 50.6943 19.7096 50.1387 19.5306 49.4714C19.4727 49.256 19.4427 49.034 19.4415 48.8109C18.8787 48.8994 18.285 48.8042 17.7577 48.5002C17.6662 48.4477 17.5807 48.3875 17.4979 48.3257H4.4506C2.82036 48.3257 1.49463 46.9994 1.49463 45.3697V10.0934C1.49463 9.919 1.56354 9.75242 1.68647 9.62937L9.53019 1.78511C9.65347 1.6621 9.82056 1.5931 9.99471 1.59326H34.103C35.7328 1.59326 37.0585 2.919 37.0585 4.54923V31.2642L37.6871 31.5312C38.572 31.9072 39.4414 31.9289 40.3463 31.5976C40.7459 31.4504 41.1368 31.2805 41.5171 31.0887C40.9651 29.8958 41.406 28.4527 42.5666 27.783L44.6465 26.5817C45.2438 26.237 45.9408 26.146 46.6085 26.325C47.2774 26.5041 47.835 26.9315 48.1792 27.5283L54.159 37.8861C54.8721 39.1208 54.4478 40.7059 53.2131 41.4189ZM31.2747 19.8199C31.2746 19.994 31.2054 20.1609 31.0823 20.284C30.9592 20.4071 30.7923 20.4763 30.6182 20.4764H7.93496C7.76293 20.4733 7.599 20.4027 7.47845 20.28C7.3579 20.1572 7.29036 19.992 7.29036 19.8199C7.29036 19.6479 7.3579 19.4827 7.47845 19.3599C7.599 19.2372 7.76293 19.1666 7.93496 19.1635H30.6182C30.7923 19.1635 30.9593 19.2327 31.0824 19.3558C31.2055 19.4789 31.2747 19.6459 31.2747 19.8199ZM7.93496 15.4425C7.84807 15.4437 7.76183 15.4275 7.68123 15.395C7.60063 15.3626 7.52729 15.3144 7.46545 15.2534C7.40361 15.1923 7.35451 15.1196 7.321 15.0394C7.28749 14.9593 7.27024 14.8732 7.27024 14.7863C7.27024 14.6995 7.28749 14.6134 7.321 14.5333C7.35451 14.4531 7.40361 14.3804 7.46545 14.3193C7.52729 14.2583 7.60063 14.2101 7.68123 14.1776C7.76183 14.1452 7.84807 14.129 7.93496 14.1302H30.6182C30.7922 14.1302 30.9591 14.1993 31.0822 14.3223C31.2053 14.4453 31.2745 14.6121 31.2747 14.7861C31.2747 14.9602 31.2055 15.1271 31.0824 15.2502C30.9593 15.3733 30.7923 15.4425 30.6182 15.4425H7.93496ZM18.6199 9.75286C18.6199 9.57878 18.6891 9.41184 18.8122 9.28873C18.9353 9.16563 19.1022 9.09645 19.2763 9.09639H30.6182C30.7923 9.09645 30.9593 9.16563 31.0824 9.28873C31.2055 9.41183 31.2747 9.57877 31.2747 9.75286C31.2746 9.92687 31.2053 10.0937 31.0822 10.2167C30.9591 10.3397 30.7923 10.4088 30.6182 10.4088H19.2763C19.1023 10.4087 18.9354 10.3396 18.8123 10.2167C18.6893 10.0937 18.6201 9.92685 18.6199 9.75286Z" fill="#07397D"/>
</svg>
