<svg width="800" height="176" viewBox="0 0 800 176" fill="none" xmlns="http://www.w3.org/2000/svg">
<rect x="8" width="120" height="120" rx="60" fill="#135DC1"/>
<path d="M61.3634 55.0002C68.7272 55.0002 74.6967 49.0306 74.6967 41.6668C74.6967 34.303 68.7272 28.3335 61.3634 28.3335C53.9996 28.3335 48.03 34.303 48.03 41.6668C48.03 49.0306 53.9996 55.0002 61.3634 55.0002Z" fill="white"/>
<path d="M81.4666 66.8335C79.7137 65.0707 77.6074 63.6989 75.2864 62.8084C72.9653 61.9179 70.4821 61.5288 67.9999 61.6668H54.6666C41.1333 61.6668 36.3333 71.5668 36.3333 80.0668C36.3333 87.6668 40.3666 91.6668 47.9999 91.6668H73.2999C73.8333 91.6668 74.1733 91.2668 74.3333 90.4001L74.9999 86.5668C75.0357 86.4037 75.0266 86.2339 74.9738 86.0755C74.921 85.9171 74.8264 85.7759 74.6999 85.6668L71.6666 82.7335C70.7835 81.9099 70.1543 80.851 69.8531 79.6816C69.5519 78.5123 69.5913 77.2812 69.9666 76.1335C70.3315 74.9699 71.0209 73.9346 71.9539 73.1493C72.8868 72.364 74.0245 71.8612 75.2333 71.7001L79.3999 71.1001C79.3999 71.1001 80.0666 71.0368 80.2666 70.6334L81.5999 67.9668C81.7067 67.7737 81.7531 67.5531 81.7333 67.3334C81.6917 67.1456 81.5995 66.9726 81.4666 66.8335Z" fill="white" fill-opacity="0.25"/>
<path d="M89.4301 69.2L92.3101 74.9067C92.4181 75.1197 92.5761 75.3034 92.7706 75.4422C92.965 75.5809 93.1902 75.6705 93.4268 75.7033L100.067 76.6467C100.338 76.681 100.594 76.7915 100.806 76.9653C101.017 77.1391 101.175 77.3692 101.261 77.6289C101.347 77.8886 101.358 78.1674 101.292 78.433C101.227 78.6986 101.087 78.9403 100.89 79.13L96.0868 83.71C95.9149 83.874 95.7861 84.0778 95.7117 84.3033C95.6373 84.5289 95.6196 84.7693 95.6601 85.0033L96.7568 91.27C96.8026 91.5599 96.7669 91.8568 96.6535 92.1275C96.5401 92.3982 96.3535 92.632 96.1147 92.8026C95.8759 92.9732 95.5943 93.074 95.3015 93.0935C95.0086 93.1131 94.7161 93.0507 94.4568 92.9133L88.6968 89.95C88.4834 89.8398 88.2469 89.7823 88.0068 89.7823C87.7667 89.7823 87.5301 89.8398 87.3168 89.95L81.5601 92.91C81.3006 93.0483 81.0077 93.1114 80.7143 93.0923C80.4209 93.0732 80.1387 92.9726 79.8994 92.8018C79.66 92.6311 79.4731 92.3969 79.3596 92.1257C79.246 91.8545 79.2104 91.557 79.2568 91.2667L80.3534 85.0033C80.3941 84.769 80.3762 84.5282 80.3011 84.3026C80.2261 84.0769 80.0963 83.8733 79.9234 83.71L75.1234 79.13C74.9249 78.9408 74.7843 78.6992 74.7179 78.4332C74.6515 78.1671 74.662 77.8877 74.7483 77.6275C74.8346 77.3672 74.9931 77.1369 75.2052 76.9632C75.4174 76.7896 75.6746 76.6798 75.9468 76.6467L82.5868 75.7033C82.8233 75.6702 83.0483 75.5805 83.2427 75.4418C83.4371 75.3031 83.5952 75.1195 83.7034 74.9067L86.5801 69.2C86.715 68.9384 86.9193 68.7189 87.1707 68.5658C87.4221 68.4126 87.7107 68.3315 88.0051 68.3315C88.2994 68.3315 88.5881 68.4126 88.8395 68.5658C89.0908 68.7189 89.2952 68.9384 89.4301 69.2Z" fill="white"/>
<rect x="24.5" y="144.5" width="87" height="31" rx="15.5" stroke="#7891B5"/>
<path d="M50.688 166.096C49.8453 166.096 49.0667 165.957 48.352 165.68C47.6373 165.392 47.0187 164.992 46.496 164.48C45.9733 163.968 45.5627 163.365 45.264 162.672C44.976 161.979 44.832 161.221 44.832 160.4C44.832 159.579 44.976 158.821 45.264 158.128C45.5627 157.435 45.9733 156.832 46.496 156.32C47.0293 155.808 47.6533 155.413 48.368 155.136C49.0827 154.848 49.8613 154.704 50.704 154.704C51.5147 154.704 52.2773 154.843 52.992 155.12C53.7067 155.387 54.3093 155.792 54.8 156.336L54.048 157.088C53.5893 156.619 53.0827 156.283 52.528 156.08C51.9733 155.867 51.376 155.76 50.736 155.76C50.064 155.76 49.44 155.877 48.864 156.112C48.288 156.336 47.7867 156.661 47.36 157.088C46.9333 157.504 46.5973 157.995 46.352 158.56C46.1173 159.115 46 159.728 46 160.4C46 161.072 46.1173 161.691 46.352 162.256C46.5973 162.811 46.9333 163.301 47.36 163.728C47.7867 164.144 48.288 164.469 48.864 164.704C49.44 164.928 50.064 165.04 50.736 165.04C51.376 165.04 51.9733 164.933 52.528 164.72C53.0827 164.507 53.5893 164.165 54.048 163.696L54.8 164.448C54.3093 164.992 53.7067 165.403 52.992 165.68C52.2773 165.957 51.5093 166.096 50.688 166.096ZM57.084 166V154.128H58.22V166H57.084ZM61.3809 166V157.6H62.5169V166H61.3809ZM61.9569 155.744C61.7222 155.744 61.5249 155.664 61.3649 155.504C61.2049 155.344 61.1249 155.152 61.1249 154.928C61.1249 154.704 61.2049 154.517 61.3649 154.368C61.5249 154.208 61.7222 154.128 61.9569 154.128C62.1915 154.128 62.3889 154.203 62.5489 154.352C62.7089 154.501 62.7889 154.688 62.7889 154.912C62.7889 155.147 62.7089 155.344 62.5489 155.504C62.3995 155.664 62.2022 155.744 61.9569 155.744ZM69.2458 166.08C68.3711 166.08 67.6031 165.899 66.9418 165.536C66.2804 165.163 65.7631 164.656 65.3898 164.016C65.0164 163.365 64.8298 162.624 64.8298 161.792C64.8298 160.96 65.0058 160.224 65.3578 159.584C65.7204 158.944 66.2111 158.443 66.8298 158.08C67.4591 157.707 68.1631 157.52 68.9418 157.52C69.7311 157.52 70.4298 157.701 71.0378 158.064C71.6564 158.416 72.1418 158.917 72.4938 159.568C72.8458 160.208 73.0218 160.949 73.0218 161.792C73.0218 161.845 73.0164 161.904 73.0058 161.968C73.0058 162.021 73.0058 162.08 73.0058 162.144H65.6938V161.296H72.3978L71.9498 161.632C71.9498 161.024 71.8164 160.485 71.5498 160.016C71.2938 159.536 70.9418 159.163 70.4938 158.896C70.0458 158.629 69.5284 158.496 68.9418 158.496C68.3658 158.496 67.8484 158.629 67.3898 158.896C66.9311 159.163 66.5738 159.536 66.3178 160.016C66.0618 160.496 65.9338 161.045 65.9338 161.664V161.84C65.9338 162.48 66.0724 163.045 66.3498 163.536C66.6378 164.016 67.0324 164.395 67.5338 164.672C68.0458 164.939 68.6271 165.072 69.2778 165.072C69.7898 165.072 70.2644 164.981 70.7018 164.8C71.1498 164.619 71.5338 164.341 71.8538 163.968L72.4938 164.704C72.1204 165.152 71.6511 165.493 71.0858 165.728C70.5311 165.963 69.9178 166.08 69.2458 166.08ZM79.622 157.52C80.3047 157.52 80.902 157.653 81.414 157.92C81.9367 158.176 82.342 158.571 82.63 159.104C82.9287 159.637 83.078 160.309 83.078 161.12V166H81.942V161.232C81.942 160.347 81.718 159.68 81.27 159.232C80.8327 158.773 80.214 158.544 79.414 158.544C78.8167 158.544 78.294 158.667 77.846 158.912C77.4087 159.147 77.0673 159.493 76.822 159.952C76.5873 160.4 76.47 160.944 76.47 161.584V166H75.334V157.6H76.422V159.904L76.246 159.472C76.5127 158.864 76.9393 158.389 77.526 158.048C78.1127 157.696 78.8113 157.52 79.622 157.52ZM88.8025 166.08C88.0132 166.08 87.4052 165.867 86.9785 165.44C86.5518 165.013 86.3385 164.411 86.3385 163.632V155.744H87.4745V163.568C87.4745 164.059 87.5972 164.437 87.8425 164.704C88.0985 164.971 88.4612 165.104 88.9305 165.104C89.4318 165.104 89.8478 164.96 90.1785 164.672L90.5785 165.488C90.3545 165.691 90.0825 165.84 89.7625 165.936C89.4532 166.032 89.1332 166.08 88.8025 166.08ZM84.8345 158.544V157.6H90.0345V158.544H84.8345Z" fill="#07397D"/>
<path d="M189.324 36V24.8H193.516C194.465 24.8 195.281 24.9547 195.964 25.264C196.647 25.5627 197.169 26 197.532 26.576C197.905 27.1413 198.092 27.8293 198.092 28.64C198.092 29.4293 197.905 30.112 197.532 30.688C197.169 31.2533 196.647 31.6907 195.964 32C195.281 32.2987 194.465 32.448 193.516 32.448H189.98L190.508 31.904V36H189.324ZM196.972 36L194.092 31.936H195.372L198.268 36H196.972ZM190.508 32L189.98 31.44H193.484C194.604 31.44 195.452 31.1947 196.028 30.704C196.615 30.2133 196.908 29.5253 196.908 28.64C196.908 27.744 196.615 27.0507 196.028 26.56C195.452 26.0693 194.604 25.824 193.484 25.824H189.98L190.508 25.264V32ZM204.215 36.08C203.34 36.08 202.572 35.8987 201.911 35.536C201.249 35.1627 200.732 34.656 200.359 34.016C199.985 33.3653 199.799 32.624 199.799 31.792C199.799 30.96 199.975 30.224 200.327 29.584C200.689 28.944 201.18 28.4427 201.799 28.08C202.428 27.7067 203.132 27.52 203.911 27.52C204.7 27.52 205.399 27.7013 206.007 28.064C206.625 28.416 207.111 28.9173 207.463 29.568C207.815 30.208 207.991 30.9493 207.991 31.792C207.991 31.8453 207.985 31.904 207.975 31.968C207.975 32.0213 207.975 32.08 207.975 32.144H200.663V31.296H207.367L206.919 31.632C206.919 31.024 206.785 30.4853 206.519 30.016C206.263 29.536 205.911 29.1627 205.463 28.896C205.015 28.6293 204.497 28.496 203.911 28.496C203.335 28.496 202.817 28.6293 202.359 28.896C201.9 29.1627 201.543 29.536 201.287 30.016C201.031 30.496 200.903 31.0453 200.903 31.664V31.84C200.903 32.48 201.041 33.0453 201.319 33.536C201.607 34.016 202.001 34.3947 202.503 34.672C203.015 34.9387 203.596 35.072 204.247 35.072C204.759 35.072 205.233 34.9813 205.671 34.8C206.119 34.6187 206.503 34.3413 206.823 33.968L207.463 34.704C207.089 35.152 206.62 35.4933 206.055 35.728C205.5 35.9627 204.887 36.08 204.215 36.08ZM213.647 36.08C212.847 36.08 212.127 35.8987 211.487 35.536C210.857 35.1733 210.361 34.672 209.999 34.032C209.636 33.392 209.455 32.6453 209.455 31.792C209.455 30.9493 209.636 30.208 209.999 29.568C210.361 28.9173 210.857 28.416 211.487 28.064C212.127 27.7013 212.847 27.52 213.647 27.52C214.393 27.52 215.055 27.6853 215.631 28.016C216.217 28.3467 216.681 28.832 217.023 29.472C217.364 30.1013 217.535 30.8747 217.535 31.792C217.535 32.7093 217.359 33.488 217.007 34.128C216.665 34.7573 216.201 35.2427 215.615 35.584C215.039 35.9147 214.383 36.08 213.647 36.08ZM213.727 35.072C214.324 35.072 214.857 34.9387 215.327 34.672C215.807 34.3947 216.18 34.0107 216.447 33.52C216.724 33.0187 216.863 32.4427 216.863 31.792C216.863 31.1413 216.724 30.5707 216.447 30.08C216.18 29.5893 215.807 29.2053 215.327 28.928C214.857 28.6507 214.324 28.512 213.727 28.512C213.14 28.512 212.612 28.6507 212.143 28.928C211.673 29.2053 211.3 29.5893 211.023 30.08C210.745 30.5707 210.607 31.1413 210.607 31.792C210.607 32.4427 210.745 33.0187 211.023 33.52C211.3 34.0107 211.673 34.3947 212.143 34.672C212.612 34.9387 213.14 35.072 213.727 35.072ZM216.847 39.104V33.504L217.007 31.808L216.895 30.128V27.6H217.983V39.104H216.847ZM224.619 36.08C223.904 36.08 223.28 35.9467 222.747 35.68C222.213 35.4133 221.797 35.0133 221.499 34.48C221.211 33.9467 221.067 33.28 221.067 32.48V27.6H222.203V32.352C222.203 33.248 222.421 33.9253 222.859 34.384C223.307 34.832 223.931 35.056 224.731 35.056C225.317 35.056 225.824 34.9387 226.251 34.704C226.688 34.4587 227.019 34.1067 227.243 33.648C227.477 33.1893 227.595 32.64 227.595 32V27.6H228.731V36H227.642V33.696L227.819 34.112C227.552 34.7307 227.136 35.216 226.571 35.568C226.016 35.9093 225.365 36.08 224.619 36.08ZM231.897 36V27.6H233.033V36H231.897ZM232.473 25.744C232.238 25.744 232.041 25.664 231.881 25.504C231.721 25.344 231.641 25.152 231.641 24.928C231.641 24.704 231.721 24.5173 231.881 24.368C232.041 24.208 232.238 24.128 232.473 24.128C232.707 24.128 232.905 24.2027 233.065 24.352C233.225 24.5013 233.305 24.688 233.305 24.912C233.305 25.1467 233.225 25.344 233.065 25.504C232.915 25.664 232.718 25.744 232.473 25.744ZM236.193 36V27.6H237.281V29.888L237.169 29.488C237.404 28.848 237.799 28.3627 238.353 28.032C238.908 27.6907 239.596 27.52 240.417 27.52V28.624C240.375 28.624 240.332 28.624 240.289 28.624C240.247 28.6133 240.204 28.608 240.161 28.608C239.276 28.608 238.583 28.88 238.081 29.424C237.58 29.9573 237.329 30.72 237.329 31.712V36H236.193ZM245.98 36.08C245.105 36.08 244.337 35.8987 243.676 35.536C243.015 35.1627 242.497 34.656 242.124 34.016C241.751 33.3653 241.564 32.624 241.564 31.792C241.564 30.96 241.74 30.224 242.092 29.584C242.455 28.944 242.945 28.4427 243.564 28.08C244.193 27.7067 244.897 27.52 245.676 27.52C246.465 27.52 247.164 27.7013 247.772 28.064C248.391 28.416 248.876 28.9173 249.228 29.568C249.58 30.208 249.756 30.9493 249.756 31.792C249.756 31.8453 249.751 31.904 249.74 31.968C249.74 32.0213 249.74 32.08 249.74 32.144H242.428V31.296H249.132L248.684 31.632C248.684 31.024 248.551 30.4853 248.284 30.016C248.028 29.536 247.676 29.1627 247.228 28.896C246.78 28.6293 246.263 28.496 245.676 28.496C245.1 28.496 244.583 28.6293 244.124 28.896C243.665 29.1627 243.308 29.536 243.052 30.016C242.796 30.496 242.668 31.0453 242.668 31.664V31.84C242.668 32.48 242.807 33.0453 243.084 33.536C243.372 34.016 243.767 34.3947 244.268 34.672C244.78 34.9387 245.361 35.072 246.012 35.072C246.524 35.072 246.999 34.9813 247.436 34.8C247.884 34.6187 248.268 34.3413 248.588 33.968L249.228 34.704C248.855 35.152 248.385 35.4933 247.82 35.728C247.265 35.9627 246.652 36.08 245.98 36.08ZM262.564 27.52C263.247 27.52 263.839 27.6533 264.34 27.92C264.852 28.176 265.247 28.5707 265.524 29.104C265.812 29.6373 265.956 30.3093 265.956 31.12V36H264.82V31.232C264.82 30.3467 264.607 29.68 264.18 29.232C263.764 28.7733 263.172 28.544 262.404 28.544C261.828 28.544 261.327 28.6667 260.9 28.912C260.484 29.1467 260.159 29.4933 259.924 29.952C259.7 30.4 259.588 30.944 259.588 31.584V36H258.452V31.232C258.452 30.3467 258.239 29.68 257.812 29.232C257.386 28.7733 256.788 28.544 256.02 28.544C255.455 28.544 254.959 28.6667 254.532 28.912C254.106 29.1467 253.775 29.4933 253.54 29.952C253.316 30.4 253.204 30.944 253.204 31.584V36H252.068V27.6H253.156V29.872L252.98 29.472C253.236 28.864 253.647 28.3893 254.212 28.048C254.788 27.696 255.466 27.52 256.244 27.52C257.066 27.52 257.764 27.728 258.34 28.144C258.916 28.5493 259.29 29.1627 259.46 29.984L259.012 29.808C259.258 29.1253 259.69 28.576 260.308 28.16C260.938 27.7333 261.69 27.52 262.564 27.52ZM272.605 36.08C271.73 36.08 270.962 35.8987 270.301 35.536C269.64 35.1627 269.122 34.656 268.749 34.016C268.376 33.3653 268.189 32.624 268.189 31.792C268.189 30.96 268.365 30.224 268.717 29.584C269.08 28.944 269.57 28.4427 270.189 28.08C270.818 27.7067 271.522 27.52 272.301 27.52C273.09 27.52 273.789 27.7013 274.397 28.064C275.016 28.416 275.501 28.9173 275.853 29.568C276.205 30.208 276.381 30.9493 276.381 31.792C276.381 31.8453 276.376 31.904 276.365 31.968C276.365 32.0213 276.365 32.08 276.365 32.144H269.053V31.296H275.757L275.309 31.632C275.309 31.024 275.176 30.4853 274.909 30.016C274.653 29.536 274.301 29.1627 273.853 28.896C273.405 28.6293 272.888 28.496 272.301 28.496C271.725 28.496 271.208 28.6293 270.749 28.896C270.29 29.1627 269.933 29.536 269.677 30.016C269.421 30.496 269.293 31.0453 269.293 31.664V31.84C269.293 32.48 269.432 33.0453 269.709 33.536C269.997 34.016 270.392 34.3947 270.893 34.672C271.405 34.9387 271.986 35.072 272.637 35.072C273.149 35.072 273.624 34.9813 274.061 34.8C274.509 34.6187 274.893 34.3413 275.213 33.968L275.853 34.704C275.48 35.152 275.01 35.4933 274.445 35.728C273.89 35.9627 273.277 36.08 272.605 36.08ZM282.981 27.52C283.664 27.52 284.261 27.6533 284.773 27.92C285.296 28.176 285.701 28.5707 285.989 29.104C286.288 29.6373 286.437 30.3093 286.437 31.12V36H285.301V31.232C285.301 30.3467 285.077 29.68 284.629 29.232C284.192 28.7733 283.573 28.544 282.773 28.544C282.176 28.544 281.653 28.6667 281.205 28.912C280.768 29.1467 280.427 29.4933 280.181 29.952C279.947 30.4 279.829 30.944 279.829 31.584V36H278.693V27.6H279.781V29.904L279.605 29.472C279.872 28.864 280.299 28.3893 280.885 28.048C281.472 27.696 282.171 27.52 282.981 27.52ZM292.162 36.08C291.373 36.08 290.765 35.8667 290.338 35.44C289.911 35.0133 289.698 34.4107 289.698 33.632V25.744H290.834V33.568C290.834 34.0587 290.957 34.4373 291.202 34.704C291.458 34.9707 291.821 35.104 292.29 35.104C292.791 35.104 293.207 34.96 293.538 34.672L293.938 35.488C293.714 35.6907 293.442 35.84 293.122 35.936C292.813 36.032 292.493 36.08 292.162 36.08ZM288.194 28.544V27.6H293.394V28.544H288.194ZM298.262 36.08C297.569 36.08 296.913 35.984 296.294 35.792C295.675 35.5893 295.19 35.3387 294.838 35.04L295.35 34.144C295.691 34.4 296.129 34.624 296.662 34.816C297.195 34.9973 297.755 35.088 298.342 35.088C299.142 35.088 299.718 34.9653 300.07 34.72C300.422 34.464 300.598 34.128 300.598 33.712C300.598 33.4027 300.497 33.1627 300.294 32.992C300.102 32.8107 299.846 32.6773 299.526 32.592C299.206 32.496 298.849 32.416 298.454 32.352C298.059 32.288 297.665 32.2133 297.27 32.128C296.886 32.0427 296.534 31.92 296.214 31.76C295.894 31.5893 295.633 31.36 295.43 31.072C295.238 30.784 295.142 30.4 295.142 29.92C295.142 29.4613 295.27 29.0507 295.526 28.688C295.782 28.3253 296.155 28.0427 296.646 27.84C297.147 27.6267 297.755 27.52 298.47 27.52C299.014 27.52 299.558 27.5947 300.102 27.744C300.646 27.8827 301.094 28.0693 301.446 28.304L300.95 29.216C300.577 28.96 300.177 28.7787 299.75 28.672C299.323 28.5547 298.897 28.496 298.47 28.496C297.713 28.496 297.153 28.6293 296.79 28.896C296.438 29.152 296.262 29.4827 296.262 29.888C296.262 30.208 296.358 30.4587 296.55 30.64C296.753 30.8213 297.014 30.9653 297.334 31.072C297.665 31.168 298.022 31.248 298.406 31.312C298.801 31.376 299.19 31.456 299.574 31.552C299.969 31.6373 300.326 31.76 300.646 31.92C300.977 32.0693 301.238 32.288 301.43 32.576C301.633 32.8533 301.734 33.2213 301.734 33.68C301.734 34.1707 301.595 34.5973 301.318 34.96C301.051 35.312 300.657 35.5893 300.134 35.792C299.622 35.984 298.998 36.08 298.262 36.08Z" fill="black"/>
<path d="M168 63L322 63M322 63L317.333 68M322 63L317.333 58" stroke="#7891B5" stroke-width="1.5" stroke-linecap="round" stroke-linejoin="round"/>
<path d="M322 89L168 89M168 89L172.667 94M168 89L172.667 84" stroke="#7891B5" stroke-width="1.5" stroke-linecap="round" stroke-linejoin="round"/>
<path d="M211.88 121.808H217.8V122.816H211.88V121.808ZM212.008 126.976H218.744V128H210.824V116.8H218.504V117.824H212.008V126.976ZM223.418 128.08C222.725 128.08 222.069 127.984 221.45 127.792C220.831 127.589 220.346 127.339 219.994 127.04L220.506 126.144C220.847 126.4 221.285 126.624 221.818 126.816C222.351 126.997 222.911 127.088 223.498 127.088C224.298 127.088 224.874 126.965 225.226 126.72C225.578 126.464 225.754 126.128 225.754 125.712C225.754 125.403 225.653 125.163 225.45 124.992C225.258 124.811 225.002 124.677 224.682 124.592C224.362 124.496 224.005 124.416 223.61 124.352C223.215 124.288 222.821 124.213 222.426 124.128C222.042 124.043 221.69 123.92 221.37 123.76C221.05 123.589 220.789 123.36 220.586 123.072C220.394 122.784 220.298 122.4 220.298 121.92C220.298 121.461 220.426 121.051 220.682 120.688C220.938 120.325 221.311 120.043 221.802 119.84C222.303 119.627 222.911 119.52 223.626 119.52C224.17 119.52 224.714 119.595 225.258 119.744C225.802 119.883 226.25 120.069 226.602 120.304L226.106 121.216C225.733 120.96 225.333 120.779 224.906 120.672C224.479 120.555 224.053 120.496 223.626 120.496C222.869 120.496 222.309 120.629 221.946 120.896C221.594 121.152 221.418 121.483 221.418 121.888C221.418 122.208 221.514 122.459 221.706 122.64C221.909 122.821 222.17 122.965 222.49 123.072C222.821 123.168 223.178 123.248 223.562 123.312C223.957 123.376 224.346 123.456 224.73 123.552C225.125 123.637 225.482 123.76 225.802 123.92C226.133 124.069 226.394 124.288 226.586 124.576C226.789 124.853 226.89 125.221 226.89 125.68C226.89 126.171 226.751 126.597 226.474 126.96C226.207 127.312 225.813 127.589 225.29 127.792C224.778 127.984 224.154 128.08 223.418 128.08ZM231.631 128.08C230.841 128.08 230.233 127.867 229.807 127.44C229.38 127.013 229.167 126.411 229.167 125.632V117.744H230.303V125.568C230.303 126.059 230.425 126.437 230.671 126.704C230.927 126.971 231.289 127.104 231.759 127.104C232.26 127.104 232.676 126.96 233.007 126.672L233.407 127.488C233.183 127.691 232.911 127.84 232.591 127.936C232.281 128.032 231.961 128.08 231.631 128.08ZM227.663 120.544V119.6H232.863V120.544H227.663ZM235.475 128V119.6H236.611V128H235.475ZM236.051 117.744C235.816 117.744 235.619 117.664 235.459 117.504C235.299 117.344 235.219 117.152 235.219 116.928C235.219 116.704 235.299 116.517 235.459 116.368C235.619 116.208 235.816 116.128 236.051 116.128C236.285 116.128 236.483 116.203 236.643 116.352C236.803 116.501 236.883 116.688 236.883 116.912C236.883 117.147 236.803 117.344 236.643 117.504C236.493 117.664 236.296 117.744 236.051 117.744ZM250.268 119.52C250.95 119.52 251.542 119.653 252.044 119.92C252.556 120.176 252.95 120.571 253.228 121.104C253.516 121.637 253.66 122.309 253.66 123.12V128H252.524V123.232C252.524 122.347 252.31 121.68 251.884 121.232C251.468 120.773 250.876 120.544 250.108 120.544C249.532 120.544 249.03 120.667 248.604 120.912C248.188 121.147 247.862 121.493 247.628 121.952C247.404 122.4 247.292 122.944 247.292 123.584V128H246.156V123.232C246.156 122.347 245.942 121.68 245.516 121.232C245.089 120.773 244.492 120.544 243.724 120.544C243.158 120.544 242.662 120.667 242.236 120.912C241.809 121.147 241.478 121.493 241.244 121.952C241.02 122.4 240.908 122.944 240.908 123.584V128H239.772V119.6H240.86V121.872L240.684 121.472C240.94 120.864 241.35 120.389 241.916 120.048C242.492 119.696 243.169 119.52 243.948 119.52C244.769 119.52 245.468 119.728 246.044 120.144C246.62 120.549 246.993 121.163 247.164 121.984L246.716 121.808C246.961 121.125 247.393 120.576 248.012 120.16C248.641 119.733 249.393 119.52 250.268 119.52ZM262.004 128V126.144L261.956 125.84V122.736C261.956 122.021 261.754 121.472 261.348 121.088C260.954 120.704 260.362 120.512 259.572 120.512C259.028 120.512 258.511 120.603 258.02 120.784C257.53 120.965 257.114 121.205 256.772 121.504L256.26 120.656C256.687 120.293 257.199 120.016 257.796 119.824C258.394 119.621 259.023 119.52 259.684 119.52C260.772 119.52 261.61 119.792 262.196 120.336C262.794 120.869 263.092 121.685 263.092 122.784V128H262.004ZM259.108 128.08C258.479 128.08 257.93 127.979 257.46 127.776C257.002 127.563 256.65 127.275 256.404 126.912C256.159 126.539 256.036 126.112 256.036 125.632C256.036 125.195 256.138 124.8 256.34 124.448C256.554 124.085 256.895 123.797 257.364 123.584C257.844 123.36 258.484 123.248 259.284 123.248H262.18V124.096H259.316C258.506 124.096 257.94 124.24 257.62 124.528C257.311 124.816 257.156 125.173 257.156 125.6C257.156 126.08 257.343 126.464 257.716 126.752C258.09 127.04 258.612 127.184 259.284 127.184C259.924 127.184 260.474 127.04 260.932 126.752C261.402 126.453 261.743 126.027 261.956 125.472L262.212 126.256C261.999 126.811 261.626 127.253 261.092 127.584C260.57 127.915 259.908 128.08 259.108 128.08ZM268.834 128.08C268.044 128.08 267.436 127.867 267.01 127.44C266.583 127.013 266.37 126.411 266.37 125.632V117.744H267.506V125.568C267.506 126.059 267.628 126.437 267.874 126.704C268.13 126.971 268.492 127.104 268.962 127.104C269.463 127.104 269.879 126.96 270.21 126.672L270.61 127.488C270.386 127.691 270.114 127.84 269.794 127.936C269.484 128.032 269.164 128.08 268.834 128.08ZM264.866 120.544V119.6H270.066V120.544H264.866ZM275.949 128.08C275.074 128.08 274.306 127.899 273.645 127.536C272.984 127.163 272.466 126.656 272.093 126.016C271.72 125.365 271.533 124.624 271.533 123.792C271.533 122.96 271.709 122.224 272.061 121.584C272.424 120.944 272.914 120.443 273.533 120.08C274.162 119.707 274.866 119.52 275.645 119.52C276.434 119.52 277.133 119.701 277.741 120.064C278.36 120.416 278.845 120.917 279.197 121.568C279.549 122.208 279.725 122.949 279.725 123.792C279.725 123.845 279.72 123.904 279.709 123.968C279.709 124.021 279.709 124.08 279.709 124.144H272.397V123.296H279.101L278.653 123.632C278.653 123.024 278.52 122.485 278.253 122.016C277.997 121.536 277.645 121.163 277.197 120.896C276.749 120.629 276.232 120.496 275.645 120.496C275.069 120.496 274.552 120.629 274.093 120.896C273.634 121.163 273.277 121.536 273.021 122.016C272.765 122.496 272.637 123.045 272.637 123.664V123.84C272.637 124.48 272.776 125.045 273.053 125.536C273.341 126.016 273.736 126.395 274.237 126.672C274.749 126.939 275.33 127.072 275.981 127.072C276.493 127.072 276.968 126.981 277.405 126.8C277.853 126.619 278.237 126.341 278.557 125.968L279.197 126.704C278.824 127.152 278.354 127.493 277.789 127.728C277.234 127.963 276.621 128.08 275.949 128.08Z" fill="black"/>
<rect x="362" width="120" height="120" rx="60" fill="#135DC1"/>
<path d="M415.364 55.0002C422.727 55.0002 428.697 49.0306 428.697 41.6668C428.697 34.303 422.727 28.3335 415.364 28.3335C408 28.3335 402.03 34.303 402.03 41.6668C402.03 49.0306 408 55.0002 415.364 55.0002Z" fill="white"/>
<path d="M435.523 67.267C435.519 67.5287 435.416 67.779 435.234 67.967L421.8 81.467C420.862 82.4037 420.335 83.6747 420.333 85.0003V90.667C420.326 90.9348 420.219 91.1902 420.033 91.3836C419.946 91.4814 419.837 91.5589 419.717 91.6107C419.596 91.6625 419.465 91.6874 419.333 91.6836H402C394.367 91.6836 390.333 87.6836 390.333 80.0836C390.333 71.5836 395.133 61.6836 408.667 61.6836H422C424.394 61.5633 426.788 61.9263 429.038 62.751C431.289 63.5757 433.351 64.8451 435.1 66.4836C435.327 66.6885 435.476 66.9651 435.523 67.267Z" fill="white" fill-opacity="0.25"/>
<path d="M448.793 78.27L433.667 93.3334H425.333V85L440.397 69.87L448.793 78.27ZM454.36 68.04L450.627 64.3067C450.002 63.6859 449.157 63.3374 448.277 63.3374C447.396 63.3374 446.551 63.6859 445.927 64.3067L442.73 67.54L451.127 75.9367L454.36 72.74C454.981 72.1155 455.329 71.2707 455.329 70.39C455.329 69.5094 454.981 68.6646 454.36 68.04Z" fill="white"/>
<rect x="362.5" y="144.5" width="119" height="31" rx="15.5" stroke="#7891B5"/>
<path d="M383.824 166V154.8H388.656C389.904 154.8 390.869 155.051 391.552 155.552C392.245 156.053 392.592 156.763 392.592 157.68C392.592 158.288 392.448 158.8 392.16 159.216C391.883 159.632 391.499 159.947 391.008 160.16C390.528 160.373 390 160.48 389.424 160.48L389.696 160.096C390.411 160.096 391.024 160.208 391.536 160.432C392.059 160.645 392.464 160.971 392.752 161.408C393.04 161.835 393.184 162.368 393.184 163.008C393.184 163.957 392.832 164.693 392.128 165.216C391.435 165.739 390.384 166 388.976 166H383.824ZM385.008 165.024H388.96C389.941 165.024 390.693 164.859 391.216 164.528C391.739 164.187 392 163.648 392 162.912C392 162.187 391.739 161.659 391.216 161.328C390.693 160.987 389.941 160.816 388.96 160.816H384.88V159.84H388.576C389.472 159.84 390.165 159.669 390.656 159.328C391.157 158.987 391.408 158.48 391.408 157.808C391.408 157.125 391.157 156.619 390.656 156.288C390.165 155.947 389.472 155.776 388.576 155.776H385.008V165.024ZM395.647 166V157.6H396.735V159.888L396.623 159.488C396.857 158.848 397.252 158.363 397.807 158.032C398.361 157.691 399.049 157.52 399.871 157.52V158.624C399.828 158.624 399.785 158.624 399.743 158.624C399.7 158.613 399.657 158.608 399.615 158.608C398.729 158.608 398.036 158.88 397.535 159.424C397.033 159.957 396.783 160.72 396.783 161.712V166H395.647ZM405.084 166.096C404.252 166.096 403.452 165.963 402.684 165.696C401.927 165.419 401.34 165.067 400.924 164.64L401.388 163.728C401.783 164.112 402.311 164.437 402.972 164.704C403.644 164.96 404.348 165.088 405.084 165.088C405.788 165.088 406.359 165.003 406.796 164.832C407.244 164.651 407.569 164.411 407.772 164.112C407.985 163.813 408.092 163.483 408.092 163.12C408.092 162.683 407.964 162.331 407.708 162.064C407.463 161.797 407.137 161.589 406.732 161.44C406.327 161.28 405.879 161.141 405.388 161.024C404.897 160.907 404.407 160.784 403.916 160.656C403.425 160.517 402.972 160.336 402.556 160.112C402.151 159.888 401.82 159.595 401.564 159.232C401.319 158.859 401.196 158.373 401.196 157.776C401.196 157.221 401.34 156.715 401.628 156.256C401.927 155.787 402.38 155.413 402.988 155.136C403.596 154.848 404.375 154.704 405.324 154.704C405.953 154.704 406.577 154.795 407.196 154.976C407.815 155.147 408.348 155.387 408.796 155.696L408.396 156.64C407.916 156.32 407.404 156.085 406.86 155.936C406.327 155.787 405.809 155.712 405.308 155.712C404.636 155.712 404.081 155.803 403.644 155.984C403.207 156.165 402.881 156.411 402.668 156.72C402.465 157.019 402.364 157.36 402.364 157.744C402.364 158.181 402.487 158.533 402.732 158.8C402.988 159.067 403.319 159.275 403.724 159.424C404.14 159.573 404.593 159.707 405.084 159.824C405.575 159.941 406.06 160.069 406.54 160.208C407.031 160.347 407.479 160.528 407.884 160.752C408.3 160.965 408.631 161.253 408.876 161.616C409.132 161.979 409.26 162.453 409.26 163.04C409.26 163.584 409.111 164.091 408.812 164.56C408.513 165.019 408.055 165.392 407.436 165.68C406.828 165.957 406.044 166.096 405.084 166.096ZM412.896 159.808H418.816V160.816H412.896V159.808ZM413.024 164.976H419.76V166H411.84V154.8H419.52V155.824H413.024V164.976ZM425.866 162.16V161.168H430.058V162.16H425.866ZM437.027 166V154.8H441.219C442.168 154.8 442.984 154.955 443.667 155.264C444.35 155.563 444.872 156 445.235 156.576C445.608 157.141 445.795 157.829 445.795 158.64C445.795 159.429 445.608 160.112 445.235 160.688C444.872 161.253 444.35 161.691 443.667 162C442.984 162.309 442.168 162.464 441.219 162.464H437.683L438.211 161.904V166H437.027ZM438.211 162L437.683 161.424H441.187C442.307 161.424 443.155 161.184 443.731 160.704C444.318 160.213 444.611 159.525 444.611 158.64C444.611 157.744 444.318 157.051 443.731 156.56C443.155 156.069 442.307 155.824 441.187 155.824H437.683L438.211 155.264V162ZM448.355 166V154.8H449.331L454.451 163.536H453.939L459.011 154.8H459.987V166H458.851V156.576H459.123L454.451 164.576H453.891L449.187 156.576H449.491V166H448.355Z" fill="#07397D"/>
<path d="M522 76L632 76M632 76L627.333 81M632 76L627.333 71" stroke="#7891B5" stroke-width="1.5" stroke-linecap="round" stroke-linejoin="round"/>
<rect x="672" width="120" height="120" rx="60" fill="#135DC1"/>
<path d="M737.95 64.6299H726.05C723.839 64.481 721.622 64.8065 719.548 65.5847C717.473 66.3629 715.589 67.5758 714.022 69.1419C712.454 70.708 711.24 72.5911 710.46 74.6651C709.68 76.739 709.353 78.9557 709.5 81.1665C709.342 82.5934 709.509 84.0375 709.988 85.3907C710.468 86.744 711.247 87.9714 712.267 88.9812C713.287 89.991 714.523 90.757 715.881 91.222C717.239 91.6871 718.685 91.839 720.11 91.6665H743.89C745.315 91.839 746.761 91.6871 748.119 91.222C749.477 90.757 750.713 89.991 751.733 88.9812C752.753 87.9714 753.532 86.744 754.011 85.3907C754.491 84.0375 754.658 82.5934 754.5 81.1665C754.647 78.9557 754.32 76.739 753.54 74.6651C752.76 72.5911 751.546 70.708 749.978 69.1419C748.411 67.5758 746.527 66.3629 744.452 65.5847C742.378 64.8065 740.161 64.481 737.95 64.6299Z" fill="white" fill-opacity="0.25"/>
<path d="M732.027 58.3732C734.336 58.364 736.591 57.6708 738.507 56.381C740.423 55.0913 741.913 53.2629 742.791 51.1266C743.668 48.9904 743.893 46.6421 743.437 44.3782C742.98 42.1142 741.864 40.0362 740.227 38.4065C738.591 36.7768 736.509 35.6683 734.243 35.2212C731.977 34.774 729.63 35.0082 727.497 35.894C725.364 36.7799 723.542 38.2779 722.26 40.1987C720.978 42.1195 720.293 44.3772 720.293 46.6866C720.304 49.7909 721.545 52.7644 723.745 54.9551C725.944 57.1458 728.922 58.375 732.027 58.3732Z" fill="white"/>
<path d="M767 62.1663C767.126 63.259 767.002 64.3658 766.639 65.4039C766.276 66.442 765.682 67.3844 764.903 68.1604C764.124 68.9365 763.179 69.5261 762.139 69.885C761.1 70.244 759.992 70.3629 758.9 70.233H757.5C757.303 70.2363 757.109 70.1811 756.943 70.0743C756.777 69.9676 756.646 69.814 756.567 69.633C755.278 67.2892 753.501 65.2493 751.356 63.6507C749.211 62.0521 746.748 60.9322 744.134 60.3663C743.958 60.3316 743.796 60.2506 743.662 60.1317C743.529 60.0128 743.43 59.8603 743.376 59.6902C743.321 59.5201 743.313 59.3385 743.353 59.1643C743.392 58.9901 743.478 58.8297 743.6 58.6997C745.937 56.5 747.573 53.6589 748.3 50.533C748.352 50.3155 748.476 50.1218 748.651 49.9828C748.827 49.8438 749.043 49.7676 749.267 49.7663H754.634C756.288 49.6596 757.946 49.9075 759.497 50.4933C761.049 51.0792 762.457 51.9896 763.627 53.1635C764.798 54.3375 765.705 55.7479 766.286 57.3005C766.868 58.8532 767.111 60.5121 767 62.1663Z" fill="white" fill-opacity="0.25"/>
<path d="M759.267 37.2332C759.269 39.5973 758.333 41.8655 756.664 43.5402C754.996 45.215 752.731 46.1595 750.367 46.1666C750.12 46.1666 749.877 46.1666 749.64 46.1332C749.382 46.1262 749.136 46.0227 748.95 45.8432C748.795 45.6927 748.702 45.4892 748.69 45.2732C748.518 43.1093 747.917 41.0012 746.922 39.072C745.927 37.1428 744.557 35.4311 742.894 34.0366C742.717 33.9168 742.592 33.7346 742.544 33.5266C742.481 33.3036 742.506 33.065 742.614 32.8599C743.578 31.1414 745.086 29.7916 746.901 29.0221C748.715 28.2526 750.734 28.1069 752.64 28.6078C754.546 29.1088 756.232 30.228 757.434 31.7902C758.636 33.3523 759.285 35.269 759.28 37.2399L759.267 37.2332Z" fill="white"/>
<path d="M697 62.1663C696.875 63.259 696.998 64.3658 697.361 65.4039C697.725 66.442 698.318 67.3844 699.097 68.1604C699.877 68.9365 700.822 69.5261 701.861 69.885C702.901 70.244 704.008 70.3629 705.1 70.233H706.5C706.698 70.2363 706.892 70.1811 707.058 70.0743C707.224 69.9676 707.355 69.814 707.434 69.633C708.723 67.2892 710.5 65.2493 712.645 63.6507C714.79 62.0521 717.252 60.9322 719.867 60.3663C720.042 60.3316 720.205 60.2506 720.338 60.1317C720.471 60.0128 720.57 59.8603 720.625 59.6902C720.679 59.5201 720.687 59.3385 720.648 59.1643C720.608 58.9901 720.523 58.8297 720.4 58.6997C718.063 56.5 716.428 53.6589 715.7 50.533C715.648 50.3155 715.524 50.1218 715.349 49.9828C715.174 49.8438 714.957 49.7676 714.734 49.7663H709.367C707.712 49.6596 706.054 49.9075 704.503 50.4933C702.952 51.0792 701.544 51.9896 700.373 53.1635C699.202 54.3375 698.296 55.7479 697.714 57.3005C697.132 58.8532 696.889 60.5121 697 62.1663Z" fill="white" fill-opacity="0.25"/>
<path d="M704.734 37.2332C704.732 39.5973 705.668 41.8655 707.336 43.5402C709.005 45.215 711.27 46.1595 713.634 46.1666C713.88 46.1666 714.124 46.1666 714.36 46.1332C714.618 46.1262 714.865 46.0227 715.05 45.8432C715.205 45.6927 715.298 45.4892 715.31 45.2732C715.482 43.1093 716.083 41.0012 717.079 39.072C718.074 37.1428 719.443 35.4311 721.107 34.0366C721.284 33.9168 721.409 33.7346 721.457 33.5266C721.52 33.3036 721.495 33.065 721.387 32.8599C720.422 31.1414 718.914 29.7916 717.1 29.0221C715.285 28.2526 713.267 28.1069 711.361 28.6078C709.454 29.1088 707.768 30.228 706.567 31.7902C705.365 33.3523 704.716 35.269 704.72 37.2399L704.734 37.2332Z" fill="white"/>
<rect x="690" y="144.5" width="84" height="31" rx="15.5" stroke="#7891B5"/>
<path d="M713.5 166V155.824H709.564V154.8H718.62V155.824H714.684V166H713.5ZM722.965 166.08C722.09 166.08 721.322 165.899 720.661 165.536C719.999 165.163 719.482 164.656 719.109 164.016C718.735 163.365 718.549 162.624 718.549 161.792C718.549 160.96 718.725 160.224 719.077 159.584C719.439 158.944 719.93 158.443 720.549 158.08C721.178 157.707 721.882 157.52 722.661 157.52C723.45 157.52 724.149 157.701 724.757 158.064C725.375 158.416 725.861 158.917 726.213 159.568C726.565 160.208 726.741 160.949 726.741 161.792C726.741 161.845 726.735 161.904 726.725 161.968C726.725 162.021 726.725 162.08 726.725 162.144H719.413V161.296H726.117L725.669 161.632C725.669 161.024 725.535 160.485 725.269 160.016C725.013 159.536 724.661 159.163 724.213 158.896C723.765 158.629 723.247 158.496 722.661 158.496C722.085 158.496 721.567 158.629 721.109 158.896C720.65 159.163 720.293 159.536 720.037 160.016C719.781 160.496 719.653 161.045 719.653 161.664V161.84C719.653 162.48 719.791 163.045 720.069 163.536C720.357 164.016 720.751 164.395 721.253 164.672C721.765 164.939 722.346 165.072 722.997 165.072C723.509 165.072 723.983 164.981 724.421 164.8C724.869 164.619 725.253 164.341 725.573 163.968L726.213 164.704C725.839 165.152 725.37 165.493 724.805 165.728C724.25 165.963 723.637 166.08 722.965 166.08ZM734.082 166V164.144L734.034 163.84V160.736C734.034 160.021 733.832 159.472 733.426 159.088C733.032 158.704 732.44 158.512 731.65 158.512C731.106 158.512 730.589 158.603 730.098 158.784C729.608 158.965 729.192 159.205 728.85 159.504L728.338 158.656C728.765 158.293 729.277 158.016 729.874 157.824C730.472 157.621 731.101 157.52 731.762 157.52C732.85 157.52 733.688 157.792 734.274 158.336C734.872 158.869 735.17 159.685 735.17 160.784V166H734.082ZM731.186 166.08C730.557 166.08 730.008 165.979 729.538 165.776C729.08 165.563 728.728 165.275 728.482 164.912C728.237 164.539 728.114 164.112 728.114 163.632C728.114 163.195 728.216 162.8 728.418 162.448C728.632 162.085 728.973 161.797 729.442 161.584C729.922 161.36 730.562 161.248 731.362 161.248H734.258V162.096H731.394C730.584 162.096 730.018 162.24 729.698 162.528C729.389 162.816 729.234 163.173 729.234 163.6C729.234 164.08 729.421 164.464 729.794 164.752C730.168 165.04 730.69 165.184 731.362 165.184C732.002 165.184 732.552 165.04 733.01 164.752C733.48 164.453 733.821 164.027 734.034 163.472L734.29 164.256C734.077 164.811 733.704 165.253 733.17 165.584C732.648 165.915 731.986 166.08 731.186 166.08ZM748.752 157.52C749.435 157.52 750.027 157.653 750.528 157.92C751.04 158.176 751.435 158.571 751.712 159.104C752 159.637 752.144 160.309 752.144 161.12V166H751.008V161.232C751.008 160.347 750.795 159.68 750.368 159.232C749.952 158.773 749.36 158.544 748.592 158.544C748.016 158.544 747.515 158.667 747.088 158.912C746.672 159.147 746.347 159.493 746.112 159.952C745.888 160.4 745.776 160.944 745.776 161.584V166H744.64V161.232C744.64 160.347 744.427 159.68 744 159.232C743.573 158.773 742.976 158.544 742.208 158.544C741.643 158.544 741.147 158.667 740.72 158.912C740.293 159.147 739.963 159.493 739.728 159.952C739.504 160.4 739.392 160.944 739.392 161.584V166H738.256V157.6H739.344V159.872L739.168 159.472C739.424 158.864 739.835 158.389 740.4 158.048C740.976 157.696 741.653 157.52 742.432 157.52C743.253 157.52 743.952 157.728 744.528 158.144C745.104 158.549 745.477 159.163 745.648 159.984L745.2 159.808C745.445 159.125 745.877 158.576 746.496 158.16C747.125 157.733 747.877 157.52 748.752 157.52Z" fill="#07397D"/>
</svg>
