<svg width="56" height="57" viewBox="0 0 56 57" fill="none" xmlns="http://www.w3.org/2000/svg">
<path fill-rule="evenodd" clip-rule="evenodd" d="M24.9215 28.7521L30.7481 25.3876L30.7491 25.9549C30.7511 27.0765 30.8641 28.2215 31.113 29.316L31.141 29.439L28.0124 35.0222C27.9051 35.2137 27.9057 35.4394 28.0155 35.6297L35.1929 48.0621L24.9215 53.9919V28.7521ZM34.532 32.0353L34.6502 32.588L35.0715 32.2113C35.5264 31.8047 35.8682 31.1602 36.0971 30.603L36.3391 30.014L35.719 30.1587C35.5678 30.1942 35.4226 30.2517 35.2882 30.3294C34.6947 30.6724 34.3889 31.3668 34.532 32.0353ZM35.8039 32.7262C36.2779 32.2452 36.628 31.6033 36.8834 30.9834L37.1476 30.3421L37.4758 30.9531C37.8799 31.7055 37.6132 32.647 36.8732 33.0744C36.6162 33.2223 36.3227 33.295 36.0264 33.2844L35.2786 33.259L35.8039 32.7262ZM37.7753 25.9359V26.2648L42.9125 26.2527C43.1377 26.2527 43.3337 26.3664 43.4455 26.5601L46.7803 32.3346V16.1319L37.1859 21.6709L37.2567 21.9174C37.6267 23.2057 37.7752 24.5895 37.7752 25.9272L37.7753 25.9359ZM36.9004 25.9272C36.9004 24.7959 36.786 23.643 36.5124 22.5438L36.4072 22.1212L31.6585 24.862L31.6487 25.0394C31.6324 25.335 31.624 25.6311 31.624 25.9272C31.624 26.3691 31.6425 26.8109 31.6802 27.2512L31.7718 28.3162L32.7377 26.5891C32.791 26.4942 32.8685 26.4152 32.9624 26.3602C33.0563 26.3051 33.1631 26.276 33.272 26.2759L36.9004 26.2673V25.9272ZM16.2789 23.2577L10.8307 20.1114L32.6881 7.4917L38.1375 10.6374L16.2789 23.2577ZM15.8413 33.9428V24.0152L10.3936 20.8688V30.7964L15.8413 33.9428Z" fill="#135DC1"/>
<path fill-rule="evenodd" clip-rule="evenodd" d="M35.4523 30.6138C35.5587 30.552 35.6737 30.5064 35.7935 30.4784C35.5068 31.1763 35.1734 31.6801 34.8527 31.9669C34.7415 31.4471 34.9689 30.8928 35.4523 30.6138ZM36.7091 32.7904C36.5053 32.9079 36.2725 32.9655 36.0374 32.9566C36.4955 32.4919 36.8794 31.8542 37.1867 31.1085C37.5063 31.7034 37.2984 32.4502 36.7091 32.7904ZM39.8753 53.7666L53.2705 45.9834L42.5738 27.4575L38.0293 27.4683C37.9655 28.1436 37.8594 28.8095 37.7106 29.4415C38.031 29.6709 38.2985 29.9662 38.495 30.3077C39.2639 31.6387 38.8069 33.3483 37.4744 34.1162C37.0369 34.37 36.5583 34.4893 36.0853 34.4893C35.1209 34.4893 34.1826 33.9896 33.6658 33.0955C32.8969 31.7647 33.3555 30.0559 34.6864 29.287C35.1655 29.0106 35.7161 28.8832 36.268 28.921C36.3652 28.4768 36.443 27.9931 36.4955 27.4711L33.619 27.4778L29.2253 35.3192L39.8753 53.7666ZM25.2495 53.4239L34.7446 47.9422L27.7313 35.794C27.564 35.5043 27.562 35.1554 27.7261 34.8621L30.793 29.389C30.5522 28.3304 30.423 27.1523 30.4209 25.9556L25.2495 28.9418V53.4239ZM2.51617 16.7003L9.18991 20.5536V31.0492C9.18987 31.1837 9.22531 31.3158 9.29263 31.4322C9.35996 31.5486 9.4568 31.6452 9.57337 31.7122L15.896 35.3632C16.0124 35.4304 16.1445 35.4657 16.2789 35.4656C16.3795 35.4657 16.479 35.4459 16.5719 35.4075C16.6648 35.369 16.7492 35.3127 16.8202 35.2416C16.8913 35.1705 16.9477 35.0861 16.9861 34.9932C17.0246 34.9004 17.0443 34.8008 17.0442 34.7003V25.0884L23.7184 28.9417V53.4239L2.51617 41.1831V16.7003ZM24.4843 3.13324L3.28147 15.3746L9.95564 19.2279L31.1569 6.98707L24.4843 3.13324ZM34.2624 19.6087C34.707 19.6087 35.2464 20.1589 35.6927 21.144L32.2115 23.1532C32.6529 20.931 33.5722 19.6087 34.2624 19.6087ZM10.7215 21.4374V30.6071L15.5131 33.3745V24.2048L10.7215 21.4374ZM11.4868 20.1115L16.2788 22.8788L37.4811 10.6376L32.688 7.87071L11.4868 20.1115ZM24.4843 27.616L17.8101 23.7627L39.0123 11.5213L45.6865 15.3746L37.0273 20.374C36.3392 18.9412 35.369 18.077 34.2625 18.077C32.3768 18.077 30.8903 20.5808 30.5142 24.1347L24.4843 27.616ZM33.2711 25.9479C33.104 25.948 32.94 25.9927 32.7959 26.0773C32.6518 26.1619 32.5328 26.2833 32.4512 26.4291L32.0071 27.2233C31.9702 26.7923 31.9519 26.36 31.952 25.9274C31.952 25.6289 31.9608 25.3387 31.9762 25.0577L36.1939 22.6233C36.4245 23.5497 36.5722 24.6629 36.5722 25.9274V25.9403L33.2711 25.9479ZM43.7297 26.3962C43.5592 26.1013 43.2552 25.9248 42.9139 25.9248H42.9119L38.1033 25.9362V25.9274C38.1033 24.4024 37.9108 23.0062 37.5722 21.8271L46.4522 16.7004V31.1106L43.7297 26.3962ZM54.8902 45.7276L47.9834 33.7631V15.3746C47.9832 15.2402 47.9477 15.1083 47.8805 14.992C47.8133 14.8756 47.7167 14.779 47.6004 14.7117L24.8671 1.58667C24.7506 1.51965 24.6185 1.48437 24.4841 1.48438C24.3497 1.48438 24.2177 1.51965 24.1012 1.58667L1.36784 14.7117C1.25143 14.7789 1.15472 14.8755 1.08741 14.9918C1.02011 15.1082 0.984575 15.2402 0.984375 15.3746V41.6246C0.984575 41.759 1.02011 41.891 1.08741 42.0074C1.15472 42.1237 1.25143 42.2203 1.36784 42.2875L24.1012 55.4125C24.2175 55.4802 24.3496 55.5157 24.4841 55.5154C24.6186 55.5156 24.7508 55.4801 24.8671 55.4125L35.5103 49.2679L38.8449 55.044C38.9067 55.1515 38.9892 55.2456 39.0876 55.3211C39.186 55.3965 39.2984 55.4518 39.4182 55.4836C39.4982 55.5044 39.5805 55.5152 39.6632 55.5156C39.8289 55.5152 39.9916 55.471 40.1346 55.3874L54.5478 47.0127C54.9952 46.7522 55.1485 46.1758 54.8902 45.7276Z" fill="#07397D"/>
</svg>
