<svg width="120" height="120" viewBox="0 0 120 120" fill="none" xmlns="http://www.w3.org/2000/svg">
<rect width="120" height="120" rx="60" fill="#135DC1"/>
<path d="M53.3634 55.0002C60.7272 55.0002 66.6967 49.0306 66.6967 41.6668C66.6967 34.303 60.7272 28.3335 53.3634 28.3335C45.9996 28.3335 40.03 34.303 40.03 41.6668C40.03 49.0306 45.9996 55.0002 53.3634 55.0002Z" fill="white"/>
<path d="M73.4666 66.8335C71.7137 65.0707 69.6074 63.6989 67.2864 62.8084C64.9653 61.9179 62.4821 61.5288 59.9999 61.6668H46.6666C33.1333 61.6668 28.3333 71.5668 28.3333 80.0668C28.3333 87.6668 32.3666 91.6668 39.9999 91.6668H65.2999C65.8333 91.6668 66.1733 91.2668 66.3333 90.4001L66.9999 86.5668C67.0357 86.4037 67.0266 86.2339 66.9738 86.0755C66.921 85.9171 66.8264 85.7759 66.6999 85.6668L63.6666 82.7335C62.7835 81.9099 62.1543 80.851 61.8531 79.6816C61.5519 78.5123 61.5913 77.2812 61.9666 76.1335C62.3315 74.9699 63.0209 73.9346 63.9539 73.1493C64.8868 72.364 66.0245 71.8612 67.2333 71.7001L71.3999 71.1001C71.3999 71.1001 72.0666 71.0368 72.2666 70.6334L73.5999 67.9668C73.7067 67.7737 73.7531 67.5531 73.7333 67.3334C73.6917 67.1456 73.5995 66.9726 73.4666 66.8335Z" fill="white" fill-opacity="0.25"/>
<path d="M81.4301 69.2L84.3101 74.9067C84.4181 75.1197 84.5761 75.3034 84.7706 75.4422C84.965 75.5809 85.1902 75.6705 85.4268 75.7033L92.0668 76.6467C92.3382 76.681 92.5944 76.7915 92.8057 76.9653C93.0171 77.1391 93.1749 77.3692 93.261 77.6289C93.3471 77.8886 93.358 78.1674 93.2923 78.433C93.2267 78.6986 93.0872 78.9403 92.8901 79.13L88.0868 83.71C87.9149 83.874 87.7861 84.0778 87.7117 84.3033C87.6373 84.5289 87.6196 84.7693 87.6601 85.0033L88.7568 91.27C88.8026 91.5599 88.7669 91.8568 88.6535 92.1275C88.5401 92.3982 88.3535 92.632 88.1147 92.8026C87.8759 92.9732 87.5943 93.074 87.3015 93.0935C87.0086 93.1131 86.7161 93.0507 86.4568 92.9133L80.6968 89.95C80.4834 89.8398 80.2469 89.7823 80.0068 89.7823C79.7667 89.7823 79.5301 89.8398 79.3168 89.95L73.5601 92.91C73.3006 93.0483 73.0077 93.1114 72.7143 93.0923C72.4209 93.0732 72.1387 92.9726 71.8994 92.8018C71.66 92.6311 71.4731 92.3969 71.3596 92.1257C71.246 91.8545 71.2104 91.557 71.2568 91.2667L72.3534 85.0033C72.3941 84.769 72.3762 84.5282 72.3011 84.3026C72.2261 84.0769 72.0963 83.8733 71.9234 83.71L67.1234 79.13C66.9249 78.9408 66.7843 78.6992 66.7179 78.4332C66.6515 78.1671 66.662 77.8877 66.7483 77.6275C66.8346 77.3672 66.9931 77.1369 67.2052 76.9632C67.4174 76.7896 67.6746 76.6798 67.9468 76.6467L74.5868 75.7033C74.8233 75.6702 75.0483 75.5805 75.2427 75.4418C75.4371 75.3031 75.5952 75.1195 75.7034 74.9067L78.5801 69.2C78.715 68.9384 78.9193 68.7189 79.1707 68.5658C79.4221 68.4126 79.7107 68.3315 80.0051 68.3315C80.2994 68.3315 80.5881 68.4126 80.8395 68.5658C81.0908 68.7189 81.2952 68.9384 81.4301 69.2Z" fill="white"/>
</svg>
