<svg width="36" height="36" viewBox="0 0 36 36" fill="none" xmlns="http://www.w3.org/2000/svg">
<rect width="36" height="36" rx="18" fill="white"/>
<path d="M18.0095 9.354C21.4195 9.354 24.5872 12.0847 24.5872 15.5296C24.5872 17.8067 23.8179 19.4165 22.5287 21.2935C21.1369 23.3196 19.3726 25.2311 18.5149 26.1219C18.2314 26.4163 17.7684 26.4163 17.4849 26.1219C16.6272 25.2311 14.8629 23.3196 13.4711 21.2935C12.1819 19.4165 11.4126 17.8067 11.4126 15.5296C11.4126 12.0847 14.5802 9.354 17.9902 9.354" stroke="#135DC1" stroke-width="1.5" stroke-linecap="round"/>
<path d="M20.47 15.8935C20.47 17.2712 19.3676 18.4106 18.0037 18.4106C16.6397 18.4106 15.5295 17.2712 15.5295 15.8935C15.5295 14.5158 16.6397 13.4711 18.0037 13.4711C19.3676 13.4711 20.47 14.5158 20.47 15.8935Z" stroke="#135DC1" stroke-width="1.5"/>
</svg>
