<svg width="36" height="36" viewBox="0 0 36 36" fill="none" xmlns="http://www.w3.org/2000/svg">
<rect width="36" height="36" rx="18" fill="white"/>
<path d="M10.2296 12.469C10.6944 11.9715 11.4236 11.2398 12.0746 10.5954C12.8549 9.82321 14.1117 9.83825 14.8823 10.6202L16.1065 11.8624C16.6869 12.4514 16.6556 13.3796 16.1484 14.0327C14.9891 15.525 15.3026 16.5305 17.3902 18.6181C19.4803 20.7082 20.4579 20.9922 21.9487 19.8236C22.5974 19.3151 23.5227 19.2873 24.1097 19.8658L25.3799 21.1176C26.1623 21.8887 26.1767 23.1465 25.4037 23.927C24.761 24.576 24.0313 25.3033 23.5323 25.7717C20.1459 28.9508 7.05831 15.8634 10.2296 12.469Z" stroke="#07397D" stroke-width="1.5"/>
</svg>
